<?xml version="1.0" encoding="utf-8"?>
<!-- Generator: Adobe Illustrator 16.0.0, SVG Export Plug-In . SVG Version: 6.00 Build 0)  -->
<!DOCTYPE svg PUBLIC "-//W3C//DTD SVG 1.1//EN" "http://www.w3.org/Graphics/SVG/1.1/DTD/svg11.dtd">
<svg version="1.1" xmlns="http://www.w3.org/2000/svg" xmlns:xlink="http://www.w3.org/1999/xlink" x="0px" y="0px"
	 width="595.28px" height="841.89px" viewBox="0 0 595.28 841.89" enable-background="new 0 0 595.28 841.89" xml:space="preserve">
<g id="O" display="none">
	<path display="inline" fill="none" stroke="#000000" stroke-miterlimit="10" d="M162.5,61.371
		c-59.117,0-107.042,47.924-107.042,107.042S103.383,275.455,162.5,275.455c59.118,0,107.043-47.924,107.043-107.042
		S221.618,61.371,162.5,61.371z M162.898,256.371c-48.579,0.22-88.136-38.983-88.355-87.561
		c-0.22-48.578,38.982-88.136,87.56-88.355c48.579-0.22,88.137,38.982,88.355,87.561
		C250.678,216.594,211.475,256.151,162.898,256.371z"/>
</g>
<g id="Jam" display="none">
</g>
<g id="W" display="none">
	<path display="inline" fill="none" stroke="#000000" stroke-miterlimit="10" d="M506.502,101.344c0-4.526-2.393-8.483-5.975-10.706
		v-27.74c3.582-2.223,5.975-6.18,5.975-10.706c0-6.961-5.643-12.604-12.604-12.604s-12.604,5.643-12.604,12.604
		c0,4.413,2.272,8.291,5.706,10.542v28.066c-1.807,1.185-3.285,2.818-4.285,4.744h-41.633c-0.984-1.896-2.432-3.512-4.199-4.691
		V62.682c3.387-2.26,5.619-6.113,5.619-10.49c0-6.961-5.643-12.604-12.604-12.604s-12.604,5.643-12.604,12.604
		c0,4.626,2.499,8.659,6.214,10.851v27.449c-3.715,2.192-6.214,6.226-6.214,10.852s2.499,8.658,6.214,10.852v32.762
		c-3.715,2.192-6.214,6.226-6.214,10.852c0,6.961,5.644,12.604,12.604,12.604s12.604-5.644,12.604-12.604
		c0-4.377-2.232-8.23-5.619-10.49v-33.485c1.742-1.161,3.174-2.745,4.158-4.604h41.715c1,1.889,2.465,3.49,4.244,4.657v33.38
		c-3.434,2.252-5.706,6.13-5.706,10.543c0,6.961,5.644,12.604,12.604,12.604s12.604-5.644,12.604-12.604
		c0-4.526-2.393-8.483-5.975-10.706v-33.054C504.109,109.826,506.502,105.869,506.502,101.344z"/>
</g>
<g id="R">
	<g>
		<path fill="#EF4136" stroke="#BE1E2D" stroke-width="2" stroke-miterlimit="10" d="M403.821,251.465
			c-59.117,0-107.042,47.924-107.042,107.042s47.924,107.042,107.042,107.042c59.118,0,107.043-47.924,107.043-107.042
			S462.939,251.465,403.821,251.465z M365.609,279.263c-0.117,0.553-0.18,1.141-0.18,1.77c0,3.245,2.355,4.866,7.067,4.866h5.275
			l-17.721,43.689c-3.653,8.982-7.009,15.229-10.064,18.747c-3.057,3.516-6.668,5.275-10.834,5.275c-3.38,0-6.051-1.119-8.015-3.354
			c-1.964-2.237-2.946-5.284-2.946-9.143c0-3.654,1.009-7.153,3.023-10.5c1.485-2.468,3.374-4.599,5.658-6.398l5.768,3.33
			l3.097-5.363l-2.683-1.549c3.558-1.462,7.836-2.424,12.848-2.875c2.936-0.308,4.916-0.82,5.94-1.537
			c1.776-1.263,2.664-2.953,2.664-5.07c0-1.947-0.828-3.526-2.484-4.738c-1.655-1.212-3.816-1.819-6.479-1.819
			c-5.601,0-11.251,1.186-16.954,3.56c-4.17,1.736-7.822,3.873-10.97,6.402C336.431,299.315,349.679,286.958,365.609,279.263z
			 M315.864,358.904c-0.008-1.734,0.04-3.456,0.132-5.166c0.946,2.127,2.202,4.06,3.769,5.798v2.066h2.102
			c4.278,3.673,9.657,5.528,16.161,5.528c9.902,0,18.114-4.405,24.637-13.215c1.81-2.425,3.404-5.063,4.787-7.913
			c1.385-2.85,3.715-8.323,6.993-16.416l6.863-16.902l14.801,35.648c2.527,6.146,7.035,9.219,13.522,9.219h23.612
			c3.038,0,5.378-0.648,7.017-1.946c1.639-1.298,2.458-3.124,2.458-5.48c0-3.209-2.355-4.814-7.066-4.814h-21.409l-2.049,0.05
			c-2.256,0-4.081-1.656-5.482-4.968l-10.806-25.661c5.292-1.467,9.551-4.328,12.777-8.579c3.228-4.251,4.841-9.108,4.841-14.571
			c0-6.01-1.98-10.671-5.942-13.983c-0.393-0.33-0.791-0.622-1.19-0.905v-1.24h-2.058c-0.891-0.446-1.795-0.801-2.717-1.03
			c-2.067-0.513-5.318-0.769-9.759-0.769h-11.271c7.279-1.988,14.933-3.072,22.838-3.107c48.579-0.22,88.137,38.982,88.355,87.561
			c0.008,1.836-0.047,3.658-0.149,5.467h-8.575c-3.838,0-6.685,1.616-8.536,4.849l-1.06,1.97l-22.731,39.146l0.909-38.438
			l0.052-0.555c0-2.323-0.725-4.184-2.173-5.582c-1.448-1.396-3.352-2.097-5.708-2.097c-4.141,0-7.223,2.24-9.244,6.718
			l-18.032,39.146l-0.302-17.578l-0.051-3.991c0-8.486-1.473-14.654-4.419-18.512c-2.948-3.855-7.705-5.784-14.27-5.784
			c-7.175,0-13.596,2.754-19.27,8.259c-5.676,5.505-8.513,11.744-8.513,18.714c0,5.725,1.785,10.455,5.355,14.193
			c3.567,3.737,8.081,5.607,13.535,5.607c3.538,0,6.467-0.75,8.789-2.248c2.324-1.498,3.486-3.376,3.486-5.632
			c0-3.401-2.054-5.103-6.162-5.103c-0.169,0-0.573,0.019-1.212,0.051c-0.641,0.034-1.313,0.051-2.021,0.051
			c-2.457,0-4.444-0.757-5.96-2.272c-1.514-1.515-2.272-3.502-2.272-5.96c0-2.93,1.346-5.834,4.039-8.713
			c2.696-2.879,5.406-4.318,8.133-4.318c3.065,0,5.128,1.069,6.189,3.207c1.061,2.139,1.59,6.289,1.59,12.451l1.063,34.904
			c0,0.405,0.019,0.795,0.048,1.175h-4.109v15.281h6.192v-9.83c0.005,0.005,0.008,0.011,0.013,0.016
			c1.433,1.599,3.41,2.398,5.938,2.398c3.5,0,6.177-1.987,8.03-5.959l18.386-39.297l-1.017,28.062l-3.003,1.734l2.767,4.791
			l-0.06,1.63c0,2.896,0.688,5.126,2.07,6.692c1.381,1.565,3.333,2.348,5.858,2.348c0.819,0,1.608-0.124,2.367-0.368
			c-12.813,7.397-27.667,11.662-43.521,11.733C355.641,446.685,316.084,407.481,315.864,358.904z M384.38,305.105l7.836-19.208
			h1.128c4.506,0,6.762,2.356,6.762,7.068c0,4.098-1.845,7.358-5.532,9.783c-1.912,1.263-4.815,2.015-8.707,2.253L384.38,305.105z
			 M451.024,432.734c0.995-0.927,1.924-2.122,2.784-3.594l16.293-28.009l3.984,2.3l3.096-5.362l-3.968-2.291l11.71-20.13h5.186
			C485.379,399.589,470.928,420.051,451.024,432.734z"/>
		
			<rect x="471.544" y="355.41" fill="#EF4136" stroke="#BE1E2D" stroke-width="2" stroke-miterlimit="10" width="15.281" height="6.192"/>
		
			<rect x="334.476" y="388.714" transform="matrix(-0.4999 -0.8661 0.8661 -0.4999 163.0699 886.8666)" fill="#EF4136" stroke="#BE1E2D" stroke-width="2" stroke-miterlimit="10" width="6.192" height="15.282"/>
		
			<rect x="465.921" y="312.825" transform="matrix(0.5001 0.866 -0.866 0.5001 512.0029 -245.9512)" fill="#EF4136" stroke="#BE1E2D" stroke-width="2" stroke-miterlimit="10" width="6.193" height="15.281"/>
		
			<rect x="362.253" y="416.492" transform="matrix(-0.8659 -0.5002 0.5002 -0.8659 469.5516 974.1419)" fill="#EF4136" stroke="#BE1E2D" stroke-width="2" stroke-miterlimit="10" width="6.193" height="15.282"/>
		
			<rect x="433.599" y="289.592" transform="matrix(0.5 -0.8661 0.8661 0.5 -32.8431 528.4937)" fill="#EF4136" stroke="#BE1E2D" stroke-width="2" stroke-miterlimit="10" width="15.281" height="6.192"/>
		
			<rect x="357.709" y="290.168" transform="matrix(0.5 0.866 -0.866 0.5 436.6552 -169.7691)" fill="#EF4136" stroke="#BE1E2D" stroke-width="2" stroke-miterlimit="10" width="15.282" height="6.193"/>
	</g>
</g>
</svg>
